<svg width="772" height="771" viewBox="0 0 772 771" fill="none" xmlns="http://www.w3.org/2000/svg">
<path d="M706.871 281.453C708.56 282.969 710.236 284.499 711.895 286.047C713.613 287.641 715.349 289.115 717.188 290.563C720.867 293.751 723.91 297.246 727 301C727.741 301.881 728.482 302.761 729.246 303.668C754.287 334.639 765.381 373.072 770 412C770.083 412.659 770.166 413.318 770.252 413.997C771.112 421.483 771.137 428.925 771.12 436.452C771.121 437.9 771.122 439.348 771.123 440.797C771.125 444.753 771.121 448.71 771.116 452.666C771.112 456.942 771.113 461.217 771.114 465.492C771.114 472.892 771.111 480.291 771.106 487.691C771.098 498.389 771.095 509.088 771.094 519.786C771.092 537.145 771.085 554.504 771.075 571.863C771.066 588.722 771.059 605.582 771.055 622.441C771.055 623.491 771.054 624.541 771.054 625.624C771.052 633.839 771.05 642.055 771.048 650.27C771.039 690.513 771.019 730.757 771 771C718.86 771 666.72 771 613 771C612.963 750.177 612.925 729.353 612.887 707.899C612.856 694.692 612.825 681.484 612.791 668.277C612.773 661.336 612.755 654.394 612.738 647.453C612.734 646.148 612.734 646.148 612.731 644.817C612.696 630.815 612.671 616.812 612.65 602.81C612.628 588.416 612.595 574.022 612.551 559.628C612.525 550.762 612.507 541.896 612.501 533.03C612.495 526.932 612.479 520.834 612.454 514.736C612.44 511.229 612.431 507.723 612.435 504.216C612.45 470.762 609.713 433.649 585.266 408.047C565.056 389.789 541.411 385.775 515 387C492.806 388.165 471.959 397.389 456.594 413.527C437.537 435.75 429.867 465.12 429.842 493.934C429.837 495.121 429.832 496.308 429.827 497.531C429.814 500.808 429.806 504.085 429.799 507.362C429.791 510.902 429.778 514.442 429.765 517.983C429.743 524.111 429.725 530.239 429.709 536.368C429.686 545.228 429.658 554.088 429.629 562.948C429.581 577.325 429.538 591.701 429.497 606.078C429.458 620.04 429.416 634.003 429.372 647.965C429.37 648.835 429.367 649.705 429.364 650.602C429.342 657.405 429.321 664.209 429.299 671.012C429.193 704.342 429.097 737.671 429 771C378.84 771 328.68 771 277 771C277 601.71 277 432.42 277 258C327.16 258 377.32 258 429 258C429 280.11 429 302.22 429 325C429.99 325 430.98 325 432 325C432.097 324.441 432.193 323.881 432.293 323.305C440.142 297.72 475.078 275.254 497 263C498.094 262.384 499.189 261.768 500.316 261.133C517.352 252.082 536.138 247.473 555 244C556.071 243.801 556.071 243.801 557.165 243.598C607.068 234.766 668.002 248.243 706.871 281.453Z" fill="#FEFEFE"/>
<path d="M16 258C68.47 258 120.94 258 175 258C175 427.29 175 596.58 175 771C122.53 771 70.06 771 16 771C16 601.71 16 432.42 16 258Z" fill="#FEFEFE"/>
<path d="M153.001 21.0005C171.41 36.321 183.826 56.2745 188.001 80.0005C189.283 100.459 188.489 123.256 177.001 141C176.431 141.912 175.861 142.823 175.274 143.762C166.98 156.545 156.017 170.164 142.001 177C141.341 177 140.681 177 140.001 177C140.001 177.66 140.001 178.32 140.001 179C136.8 180.235 133.599 181.467 130.395 182.696C128.474 183.434 126.553 184.177 124.638 184.93C114.916 188.71 106.633 189.312 96.2509 189.25C94.9567 189.258 93.6625 189.266 92.329 189.274C65.6472 189.22 44.1199 178.59 25.4027 159.837C8.05569 141.716 0.28103 117.2 0.462072 92.5225C1.24479 66.6397 11.7912 44.2687 30.0009 26.0005C63.9654 -5.54927 116.769 -8.28854 153.001 21.0005Z" fill="#FEFEFE"/>
<path d="M467 403C467.66 403.33 468.32 403.66 469 404C463.72 409.28 458.44 414.56 453 420C452.34 419.67 451.68 419.34 451 419C452.725 417.079 454.454 415.163 456.188 413.25C456.67 412.711 457.153 412.172 457.65 411.617C460.562 408.413 463.527 405.616 467 403Z" fill="#4963AB"/>
</svg>
