<svg width="1238" height="1243" viewBox="0 0 1238 1243" fill="none" xmlns="http://www.w3.org/2000/svg">
<path d="M7 2.00045C53.3454 1.70291 99.6908 1.47383 146.037 1.3366C151.508 1.32034 156.979 1.30351 162.45 1.28634C163.54 1.28293 164.629 1.27952 165.751 1.276C183.389 1.21943 201.027 1.11693 218.665 0.997462C236.762 0.875905 254.859 0.803687 272.956 0.777298C284.124 0.759457 295.291 0.703107 306.459 0.597534C314.116 0.528831 321.773 0.508043 329.43 0.52493C333.85 0.533261 338.266 0.520473 342.685 0.450777C346.734 0.387384 350.778 0.384375 354.827 0.428763C356.289 0.434245 357.751 0.417834 359.213 0.376967C369.841 0.0970795 369.841 0.0970795 373.46 3.28775C376.554 6.86449 378.758 10.8565 381 15.0004C381.902 16.322 382.826 17.6299 383.785 18.9106C387.618 24.2165 391.394 29.5364 395 35.0005C398.639 40.5101 402.452 45.8823 406.305 51.2426C410.734 57.4056 415.091 63.6193 419.463 69.8227C420.987 71.9827 422.515 74.1403 424.043 76.2973C428.951 83.2289 433.827 90.1791 438.625 97.188C443.652 104.53 448.805 111.776 454 119C460.42 127.943 466.756 136.934 473 146C482.734 160.106 492.482 174.202 502.562 188.063C507.664 195.079 512.593 202.2 517.468 209.374C520.929 214.461 524.477 219.467 528.125 224.422C530.994 228.367 533.744 232.391 536.512 236.407C542.543 245.139 548.646 253.828 554.938 262.375C559.07 268.022 562.991 273.809 566.93 279.592C573.819 289.691 580.833 299.704 588.062 309.563C591.689 314.521 595.167 319.572 598.628 324.646C601.173 328.369 603.748 332.066 606.371 335.735C607.201 336.898 607.201 336.898 608.048 338.084C609.125 339.59 610.207 341.093 611.292 342.593C611.777 343.271 612.262 343.95 612.762 344.649C613.194 345.249 613.627 345.849 614.073 346.467C615 348 615 348 615 350C615.66 350 616.32 350 617 350C618.375 351.915 618.375 351.915 620 354.625C622.712 359.008 625.544 363.262 628.562 367.438C632.761 373.256 636.894 379.117 641 385C645.404 391.305 649.831 397.591 654.31 403.842C661.159 413.403 667.947 423.007 674.625 432.688C679.336 439.517 684.161 446.262 689 453C692.263 451.913 692.878 451.25 695 448.688C697.605 445.61 700.267 442.609 703.013 439.656C706.815 435.569 710.5 431.467 713.938 427.063C718.07 421.783 722.608 416.932 727.18 412.036C729.958 409.058 732.649 406.014 735.312 402.934C737.243 400.722 739.214 398.55 741.188 396.375C744.861 392.307 748.444 388.171 752 384C756.258 379.007 760.582 374.084 764.992 369.223C766.83 367.188 768.639 365.133 770.438 363.063C773.198 359.888 776.028 356.785 778.875 353.688C782.145 350.108 785.28 346.471 788.312 342.688C792.384 337.637 796.743 332.926 801.189 328.208C805.36 323.757 809.21 319.142 813.023 314.379C815.266 311.68 817.69 309.282 820.211 306.848C822.336 304.653 824.216 302.323 826.125 299.938C830.422 294.585 835.024 289.576 839.747 284.596C842.717 281.551 842.717 281.551 845 278C845.66 278 846.32 278 847 278C847.346 277.175 847.346 277.175 847.699 276.332C849.364 273.348 851.465 271.173 853.812 268.688C858.175 264.015 862.44 259.271 866.625 254.438C867.443 253.495 867.443 253.495 868.278 252.532C872.408 247.744 876.389 242.855 880.293 237.879C880.856 237.259 881.42 236.639 882 236C882.66 236 883.32 236 884 236C884.226 235.455 884.451 234.91 884.684 234.348C886.391 231.302 888.671 228.947 891.062 226.438C894.632 222.627 898.057 218.776 901.312 214.688C905.571 209.39 910.177 204.484 914.845 199.55C919.002 195.133 922.867 190.562 926.652 185.821C930.573 181.111 934.801 176.691 938.992 172.223C941.843 169.182 944.608 166.077 947.328 162.918C949.349 160.6 951.426 158.335 953.5 156.063C956.978 152.219 960.206 148.266 963.297 144.106C965.366 141.549 967.659 139.311 970 137C971.939 134.98 973.848 132.931 975.75 130.875C976.543 130.018 976.543 130.018 977.352 129.144C980.467 125.751 983.44 122.291 986.312 118.688C990.152 113.897 994.276 109.449 998.5 105C1003.54 99.6971 1008.31 94.3341 1012.86 88.6098C1016.09 84.6642 1019.56 80.9493 1023.03 77.2153C1025.03 75.1637 1025.03 75.1637 1026 73.0005C1026.66 73.0005 1027.32 73.0005 1028 73.0005C1028.25 72.4436 1028.5 71.8867 1028.75 71.313C1030.23 68.5763 1031.93 66.3239 1034 64.0005C1034.66 64.0005 1035.32 64.0005 1036 64.0005C1036.37 63.1651 1036.37 63.1651 1036.75 62.313C1038.23 59.5763 1039.93 57.3239 1042 55.0005C1042.66 55.0005 1043.32 55.0005 1044 55.0005C1044.23 54.4565 1044.45 53.9125 1044.68 53.352C1046.41 50.264 1048.65 47.9559 1051.06 45.3755C1054.42 41.9584 1054.42 41.9584 1057 38.0005C1057.66 38.0005 1058.32 38.0005 1059 38.0005C1059.33 37.1883 1059.33 37.1883 1059.67 36.3598C1061.43 33.239 1063.79 30.8229 1066.25 28.2504C1070.03 24.2208 1073.51 20.1534 1076.74 15.6645C1078.6 13.2088 1080.8 11.1465 1083 9.00045C1083.39 8.4258 1083.79 7.85116 1084.19 7.2591C1086.21 4.39921 1087.79 2.34448 1091.24 1.36428C1093.98 1.13906 1096.66 1.13423 1099.41 1.20577C1100.45 1.20475 1101.48 1.20373 1102.55 1.20267C1105.96 1.20754 1109.36 1.26193 1112.77 1.31685C1115.14 1.32991 1117.51 1.33988 1119.88 1.34687C1126.1 1.37356 1132.33 1.4423 1138.55 1.5198C1144.9 1.59148 1151.26 1.62339 1157.61 1.65865C1170.08 1.73367 1182.54 1.8531 1195 2.00045C1194.16 6.30772 1192.2 7.99254 1189 11.0004C1181.4 19.0346 1174.26 27.3465 1167.4 36.02C1166.31 37.3808 1165.16 38.6978 1164 40.0005C1163.34 40.0005 1162.68 40.0005 1162 40.0005C1161.63 40.8358 1161.63 40.8358 1161.25 41.688C1159.77 44.4246 1158.07 46.677 1156 49.0005C1155.34 49.0005 1154.68 49.0005 1154 49.0005C1153.63 49.8435 1153.63 49.8435 1153.26 50.7036C1151.76 53.4406 1149.93 55.4584 1147.81 57.7505C1147 58.6373 1146.19 59.5242 1145.35 60.438C1144.58 61.2836 1143.8 62.1292 1143 63.0005C1138.56 67.9842 1134.22 73.0596 1129.88 78.1255C1129.37 78.7117 1128.87 79.2979 1128.35 79.9018C1127.62 80.7589 1127.62 80.7589 1126.87 81.6333C1126.15 82.4691 1126.15 82.4691 1125.42 83.3217C1124.46 84.4564 1123.52 85.6048 1122.59 86.7651C1121.43 88.21 1120.22 89.6099 1119 91.0005C1118.34 91.0005 1117.68 91.0005 1117 91.0005C1116.75 91.5702 1116.5 92.14 1116.24 92.727C1114.82 95.3318 1113.15 97.2032 1111.12 99.3755C1107.35 103.492 1103.68 107.681 1100.06 111.938C1095.55 117.236 1090.94 122.421 1086.23 127.551C1083.71 130.323 1081.24 133.142 1078.78 135.973C1076.71 138.335 1074.6 140.668 1072.5 143C1067.68 148.348 1062.92 153.743 1058.25 159.223C1052.67 165.766 1047.03 172.225 1041.22 178.567C1037.14 183.038 1033.18 187.612 1029.25 192.219C1028.23 193.417 1027.21 194.615 1026.19 195.813C1025.67 196.419 1025.15 197.025 1024.62 197.649C1021.42 201.391 1018.15 205.061 1014.81 208.688C1011.64 212.141 1008.62 215.656 1005.69 219.313C1001.05 225.06 996.042 230.41 990.996 235.793C986.63 240.452 982.468 245.271 978.336 250.137C972.783 256.664 967.14 263.062 961.286 269.32C958.262 272.574 955.4 275.903 952.625 279.375C948.951 283.958 945.033 288.236 941 292.5C936.17 297.607 931.605 302.819 927.215 308.313C923.824 312.427 920.191 316.308 916.57 320.219C911.202 326.028 906.18 331.947 901.48 338.313C900.748 339.148 900.748 339.148 900 340C899.34 340 898.68 340 898 340C897.777 340.542 897.554 341.083 897.324 341.641C895.579 344.75 893.247 347.179 890.812 349.75C889.812 350.825 888.812 351.901 887.812 352.977C887.328 353.497 886.843 354.017 886.344 354.552C881.141 360.159 876.352 366.025 871.699 372.094C871.138 372.723 870.578 373.352 870 374C869.34 374 868.68 374 868 374C867.777 374.542 867.554 375.083 867.324 375.641C865.579 378.75 863.247 381.179 860.812 383.75C859.805 384.832 858.799 385.914 857.793 386.997C857.065 387.777 857.065 387.777 856.322 388.574C852.987 392.173 849.806 395.907 846.602 399.622C844.965 401.52 843.326 403.417 841.688 405.313C841.123 405.966 840.559 406.619 839.978 407.292C836.623 411.164 833.218 414.979 829.75 418.75C824.183 424.825 819.003 431.192 813.902 437.661C811.763 440.291 809.396 442.604 807 445C806.443 445.764 805.886 446.527 805.312 447.313C804.663 448.148 804.663 448.148 804 449C803.34 449 802.68 449 802 449C801.767 449.552 801.533 450.104 801.293 450.672C799.66 453.613 797.607 455.791 795.312 458.25C794.398 459.24 793.484 460.229 792.57 461.219C791.722 462.137 790.874 463.055 790 464C787.64 466.644 785.32 469.322 783 472C782.046 473.101 781.091 474.201 780.137 475.301C777.922 477.855 775.709 480.41 773.496 482.965C771.137 485.689 768.775 488.41 766.41 491.129C765.828 491.799 765.246 492.469 764.647 493.158C763.537 494.436 762.426 495.713 761.314 496.989C759.051 499.594 756.855 502.19 754.754 504.93C754.175 505.613 753.596 506.297 753 507C752.34 507 751.68 507 751 507C750.786 507.532 750.572 508.063 750.352 508.61C748.487 511.909 745.958 514.51 743.375 517.25C742.602 518.082 742.602 518.082 741.812 518.93C740.546 520.291 739.273 521.646 738 523C742.782 530.645 747.768 538.113 752.938 545.5C753.602 546.456 754.267 547.411 754.951 548.395C758.284 553.173 761.656 557.918 765.094 562.622C768.683 567.537 772.146 572.526 775.562 577.563C776.698 579.229 777.833 580.894 778.969 582.559C779.499 583.336 780.028 584.113 780.574 584.914C783.345 588.969 786.166 592.989 789 597C789.888 598.26 790.776 599.519 791.664 600.778C795.79 606.626 799.917 612.473 804.055 618.313C809.281 625.694 814.464 633.101 819.577 640.561C831.491 657.938 843.546 675.222 855.827 692.341C860.803 699.278 865.66 706.29 870.484 713.332C874.481 719.166 878.546 724.951 882.637 730.719C888.075 738.394 893.456 746.101 898.75 753.875C902.785 759.8 906.884 765.66 911.133 771.434C913.557 774.766 915.896 778.153 918.232 781.546C921.709 786.593 925.229 791.609 928.75 796.625C933.405 803.259 938.007 809.924 942.562 816.625C947.295 823.581 952.165 830.422 957.119 837.223C961.642 843.453 965.995 849.789 970.323 856.156C974.328 862.042 978.422 867.855 982.586 873.629C985.156 877.201 987.673 880.808 990.193 884.415C991.888 886.84 993.588 889.263 995.289 891.684C1001.12 899.986 1006.91 908.306 1012.62 916.688C1018.17 924.816 1023.81 932.867 1029.5 940.89C1037.97 952.825 1046.38 964.793 1054.65 976.868C1059.83 984.427 1065.06 991.934 1070.41 999.379C1075.31 1006.22 1080.16 1013.11 1085 1020C1085.53 1020.75 1086.06 1021.51 1086.6 1022.28C1088.16 1024.5 1089.71 1026.72 1091.25 1028.94C1091.73 1029.62 1092.21 1030.3 1092.7 1031C1096 1035.77 1096 1035.77 1096 1038C1096.66 1038 1097.32 1038 1098 1038C1099.45 1040.02 1099.45 1040.02 1101.12 1042.81C1104.24 1047.85 1107.57 1052.64 1111.11 1057.4C1113.15 1060.21 1115.07 1063.1 1117 1066C1119.15 1069.11 1121.33 1072.21 1123.5 1075.31C1124.12 1076.19 1124.73 1077.07 1125.37 1077.98C1129.29 1083.58 1133.24 1089.17 1137.19 1094.75C1141 1100.14 1144.77 1105.55 1148.5 1111C1154.25 1119.39 1160.12 1127.7 1166 1136C1172.29 1144.88 1178.55 1153.77 1184.7 1162.75C1188.56 1168.38 1192.46 1173.97 1196.38 1179.56C1196.96 1180.4 1197.54 1181.23 1198.14 1182.09C1198.7 1182.89 1199.26 1183.68 1199.84 1184.5C1200.37 1185.27 1200.9 1186.03 1201.45 1186.81C1202.46 1188.24 1203.49 1189.66 1204.52 1191.07C1208 1195.8 1208 1195.8 1208 1198C1208.66 1198 1209.32 1198 1210 1198C1211.19 1199.77 1211.19 1199.77 1212.56 1202.25C1215.57 1207.45 1219.05 1212.14 1222.7 1216.91C1225.7 1220.93 1228.45 1225.09 1231.2 1229.29C1233.39 1232.59 1235.67 1235.8 1238 1239C1237.67 1239.66 1237.34 1240.32 1237 1241C1190.75 1241.21 1144.5 1241.37 1098.24 1241.46C1092.78 1241.47 1087.33 1241.48 1081.87 1241.49C1080.78 1241.5 1079.69 1241.5 1078.57 1241.5C1060.97 1241.54 1043.37 1241.61 1025.76 1241.69C1007.7 1241.78 989.646 1241.83 971.587 1241.85C960.44 1241.86 949.295 1241.9 938.149 1241.97C930.509 1242.02 922.869 1242.03 915.229 1242.02C910.818 1242.02 906.409 1242.03 901.999 1242.07C897.961 1242.12 893.925 1242.12 889.887 1242.09C888.427 1242.08 886.966 1242.1 885.506 1242.12C874.617 1242.32 874.617 1242.32 870.655 1239.08C868.848 1236.8 867.417 1234.54 866 1232C864.965 1230.49 863.92 1228.99 862.859 1227.49C861.821 1225.96 860.784 1224.42 859.75 1222.88C855.321 1216.34 850.792 1209.9 846.093 1203.56C841.123 1196.84 836.326 1190.01 831.525 1183.17C828.98 1179.55 826.428 1175.93 823.875 1172.31C823.374 1171.6 822.873 1170.89 822.357 1170.16C819.676 1166.36 816.98 1162.57 814.266 1158.8C809.896 1152.72 805.646 1146.57 801.438 1140.38C797.173 1134.1 792.827 1127.94 788.195 1121.93C783.048 1115.06 778.248 1107.92 773.356 1100.86C766.166 1090.49 758.867 1080.21 751.448 1070C748.003 1065.24 744.604 1060.46 741.197 1055.68C739.984 1053.98 738.766 1052.28 737.547 1050.59C732.699 1043.84 727.942 1037.03 723.249 1030.18C717.098 1021.21 710.826 1012.32 704.477 1003.48C703.672 1002.37 702.867 1001.25 702.062 1000.13C701.664 999.571 701.265 999.016 700.855 998.445C697.363 993.56 693.995 988.595 690.625 983.625C686.008 976.825 681.221 970.193 676.248 963.649C672.367 958.532 668.695 953.301 665.07 948C663.133 945.193 661.145 942.436 659.125 939.688C655.931 935.329 652.857 930.901 649.812 926.438C645.856 920.645 641.811 914.926 637.688 909.25C631.248 900.386 624.967 891.415 618.698 882.43C612.801 873.991 606.892 865.56 600.812 857.25C597.329 852.484 593.964 847.643 590.613 842.782C580.885 828.681 571.032 814.662 560.953 800.809C554.657 792.146 548.481 783.421 542.489 774.545C539.131 769.586 535.637 764.758 532 760C528.476 762.546 528.476 762.546 526 766C525.34 766 524.68 766 524 766C523.631 766.849 523.631 766.849 523.254 767.715C521.785 770.393 520.022 772.331 517.938 774.563C514.616 778.178 511.449 781.86 508.375 785.688C505.87 788.786 503.366 791.733 500.5 794.5C496.8 798.074 493.674 802.04 490.453 806.043C487.895 809.127 485.23 812.07 482.5 815C479.048 818.709 475.735 822.485 472.562 826.438C469.197 830.623 465.668 834.584 462 838.5C457.532 843.272 453.333 848.183 449.242 853.286C445.963 857.256 442.474 861.015 438.969 864.786C436.973 866.837 436.973 866.837 436 869C435.34 869 434.68 869 434 869C433.756 869.562 433.513 870.124 433.262 870.704C431.758 873.441 429.933 875.458 427.812 877.75C427 878.637 426.188 879.524 425.352 880.438C424.576 881.284 423.8 882.129 423 883C419.692 886.713 416.444 890.477 413.215 894.258C407.894 900.488 402.541 906.674 397.039 912.747C395.032 914.965 393.041 917.195 391.062 919.438C390.517 920.055 389.972 920.673 389.41 921.309C387.819 923.157 387.819 923.157 386 926C385.34 926 384.68 926 384 926C383.764 926.556 383.528 927.112 383.285 927.684C381.687 930.564 379.695 932.664 377.438 935.063C374.005 938.754 370.721 942.505 367.562 946.438C363.903 950.975 360.05 955.261 356.082 959.524C353.131 962.713 350.34 965.984 347.625 969.375C344.093 973.768 340.361 977.9 336.5 982C331.836 986.954 327.441 992.032 323.184 997.344C320.034 1001.18 316.682 1004.81 313.328 1008.46C308.209 1014.04 303.301 1019.81 298.375 1025.56C289.185 1036.29 279.993 1047 270.41 1057.38C266.241 1061.91 262.222 1066.57 258.223 1071.25C252.886 1077.5 247.518 1083.7 242 1089.79C236.489 1095.88 231.164 1102.14 225.823 1108.38C222.084 1112.74 218.329 1117.1 214.562 1121.44C214.031 1122.05 213.499 1122.66 212.951 1123.3C210.092 1126.59 207.228 1129.89 204.359 1133.18C203.766 1133.86 203.172 1134.54 202.56 1135.24C201.421 1136.55 200.28 1137.86 199.137 1139.17C196.926 1141.71 194.871 1144.19 193 1147C192.34 1147 191.68 1147 191 1147C191 1147.66 191 1148.32 191 1149C190.34 1149 189.68 1149 189 1149C188.691 1149.62 188.381 1150.24 188.062 1150.88C187.375 1152.25 186.688 1153.63 186 1155C185.34 1155 184.68 1155 184 1155C183.767 1155.55 183.533 1156.1 183.293 1156.67C181.66 1159.61 179.607 1161.79 177.312 1164.25C174.315 1167.49 171.329 1170.73 168.438 1174.06C165.873 1177.02 163.259 1179.92 160.625 1182.81C157.534 1186.23 154.575 1189.72 151.688 1193.31C147.797 1198.13 143.67 1202.65 139.442 1207.16C135.547 1211.35 131.939 1215.71 128.363 1220.16C125.104 1224.08 121.649 1227.79 118.16 1231.5C115.992 1233.81 114.066 1235.89 112.491 1238.65C108.578 1242.34 104.637 1241.66 99.4482 1241.57C98.3748 1241.57 97.3013 1241.57 96.1953 1241.57C92.6453 1241.57 89.0966 1241.53 85.5469 1241.49C83.0864 1241.48 80.6259 1241.47 78.1653 1241.47C71.6878 1241.45 65.2108 1241.4 58.7335 1241.34C52.1245 1241.29 45.5154 1241.27 38.9062 1241.24C25.9373 1241.19 12.9687 1241.11 0 1241C1.337 1238.25 2.66892 1236.02 4.6875 1233.72C5.2165 1233.11 5.7455 1232.5 6.29053 1231.87C6.85465 1231.23 7.41878 1230.6 8 1229.94C8.58088 1229.27 9.16177 1228.61 9.76025 1227.93C14.0549 1223.03 18.4172 1218.2 22.8125 1213.4C26.8702 1208.95 30.8092 1204.4 34.7109 1199.82C40.5366 1192.98 46.4578 1186.26 52.5547 1179.66C55.7722 1176.16 58.9004 1172.6 62 1169C62.4396 1168.49 62.8791 1167.98 63.332 1167.46C69.2159 1160.66 75.0235 1153.85 80.4766 1146.7C80.9793 1146.14 81.482 1145.58 82 1145C82.66 1145 83.32 1145 84 1145C84.2436 1144.44 84.4873 1143.88 84.7383 1143.3C86.2418 1140.56 88.067 1138.54 90.1875 1136.25C91.4076 1134.92 91.4076 1134.92 92.6523 1133.56C93.4271 1132.71 94.2018 1131.87 95 1131C98.3843 1127.19 101.71 1123.34 105.043 1119.48C105.596 1118.85 106.149 1118.21 106.719 1117.55C107.861 1116.23 109.003 1114.91 110.145 1113.59C113.92 1109.23 117.736 1104.91 121.609 1100.64C123.081 1099.04 123.081 1099.04 124 1097C124.66 1097 125.32 1097 126 1097C126.215 1096.47 126.431 1095.93 126.652 1095.38C128.493 1092.13 130.998 1089.62 133.562 1086.94C137.344 1082.92 140.994 1078.88 144.438 1074.56C148.464 1069.54 152.792 1064.88 157.201 1060.19C161.243 1055.88 164.996 1051.4 168.691 1046.78C171.353 1043.58 174.155 1040.54 177 1037.5C180.649 1033.6 184.157 1029.67 187.5 1025.5C190.843 1021.33 194.351 1017.4 198 1013.5C202.456 1008.74 206.631 1003.84 210.715 998.758C214.142 994.623 217.795 990.708 221.445 986.77C223.501 984.541 225.516 982.293 227.5 980C229.929 977.193 232.421 974.453 234.945 971.731C238.919 967.443 242.774 963.124 246.438 958.563C250.282 953.783 254.372 949.306 258.563 944.832C261.64 941.529 264.557 938.156 267.375 934.625C271.049 930.042 274.967 925.764 279 921.5C283.85 916.372 288.441 911.139 292.852 905.622C295.973 901.813 299.303 898.208 302.633 894.582C304.779 892.241 306.9 889.883 309 887.5C309.536 886.892 310.072 886.284 310.625 885.657C312.185 883.837 312.185 883.837 314 881C314.66 881 315.32 881 316 881C316.242 880.438 316.485 879.876 316.734 879.297C318.25 876.547 320.104 874.543 322.25 872.25C325.736 868.467 328.878 864.624 331.809 860.399C332.202 859.937 332.595 859.476 333 859C333.66 859 334.32 859 335 859C335.233 858.449 335.467 857.897 335.707 857.329C337.34 854.388 339.393 852.21 341.688 849.75C344.685 846.512 347.671 843.271 350.562 839.938C353.127 836.983 355.741 834.081 358.375 831.188C361.429 827.811 364.344 824.368 367.188 820.813C371.494 815.481 376.136 810.528 380.842 805.553C385.02 801.113 388.912 796.519 392.719 791.754C396.379 787.336 400.316 783.18 404.227 778.985C407.571 775.396 410.804 771.722 414 768C414.936 766.918 415.872 765.836 416.809 764.754C422.067 758.663 427.254 752.547 432.184 746.184C434.312 743.626 436.635 741.341 439 739C440.803 737.072 442.596 735.138 444.375 733.188C444.86 732.657 445.345 732.127 445.844 731.58C449.621 727.436 453.342 723.25 457 719C457.434 718.498 457.869 717.995 458.316 717.477C464.31 710.538 470.237 703.565 475.965 696.403C478.18 693.788 480.548 691.393 483 689C480.188 683.727 476.882 679.021 473.336 674.215C470.681 670.561 468.114 666.853 465.562 663.125C465.094 662.441 464.626 661.757 464.143 661.052C463.207 659.686 462.272 658.319 461.337 656.952C458.627 652.997 455.892 649.058 453.16 645.118C451.75 643.082 450.341 641.046 448.934 639.008C443.803 631.581 438.627 624.187 433.441 616.798C429.351 610.96 425.32 605.084 421.312 599.188C416.99 592.831 412.54 586.596 407.957 580.425C403.908 574.945 400.142 569.297 396.391 563.61C390.288 554.362 383.84 545.346 377.444 536.3C371.497 527.885 365.649 519.403 359.815 510.909C354.357 502.963 348.864 495.044 343.293 487.176C335.32 475.911 327.472 464.567 319.703 453.161C313.037 443.338 313.037 443.338 306.125 433.688C302.189 428.348 298.475 422.863 294.75 417.375C288.274 407.838 281.68 398.396 275 389C267.073 377.839 259.271 366.599 251.56 355.288C245.379 346.224 239.168 337.193 232.767 328.284C228.21 321.928 223.797 315.474 219.382 309.02C217.136 305.738 214.88 302.464 212.625 299.188C209.616 294.816 206.615 290.439 203.629 286.051C203.056 285.211 202.484 284.371 201.894 283.506C200.791 281.887 199.69 280.267 198.59 278.646C195.64 274.318 192.594 270.092 189.431 265.917C187.178 262.901 185.057 259.799 182.938 256.688C182.474 256.011 182.011 255.335 181.533 254.638C178.933 250.839 176.342 247.035 173.75 243.231C172.646 241.612 171.542 239.994 170.438 238.375C169.89 237.573 169.342 236.771 168.778 235.944C165.073 230.53 161.293 225.177 157.457 219.855C154.201 215.323 151.117 210.692 148.043 206.036C145.463 202.203 142.768 198.457 140.067 194.71C136.421 189.633 132.891 184.48 129.375 179.313C125.347 173.396 121.256 167.547 117.012 161.782C112.548 155.611 108.297 149.288 104 143C98.0069 134.239 91.9687 125.514 85.8345 116.851C76.3748 103.478 67.0115 90.0321 57.8005 76.4865C55.3309 72.8721 52.7827 69.3247 50.1953 65.7934C45.9491 59.975 41.9014 54.0347 37.875 48.063C31.3829 38.4735 24.8112 28.9448 18.1484 19.4731C17.6415 18.7514 17.1346 18.0297 16.6123 17.2861C15.4417 15.6267 14.2644 13.972 13.083 12.3203C12.4498 11.4297 11.8165 10.5391 11.1641 9.62154C10.5835 8.81 10.0029 7.99845 9.40479 7.16231C8 5.00045 8 5.00045 7 2.00045ZM149 81.0005C154.554 92.3366 162.889 102.475 170.294 112.654C173.039 116.429 175.769 120.215 178.5 124C179.579 125.495 180.659 126.99 181.738 128.485C182.274 129.227 182.81 129.969 183.362 130.733C185.026 133.036 186.691 135.339 188.355 137.641C195.917 148.1 203.474 158.561 210.898 169.118C216.192 176.645 221.528 184.132 226.989 191.538C230.518 196.328 233.986 201.157 237.435 206.004C239.997 209.603 242.582 213.183 245.188 216.75C247.601 220.058 249.978 223.386 252.312 226.75C255.205 230.905 258.183 234.989 261.188 239.063C266.763 246.628 272.177 254.303 277.583 261.99C286.944 275.274 296.472 288.444 306.062 301.563C309.379 306.115 312.631 310.71 315.875 315.313C323.402 325.992 330.971 336.627 338.75 347.125C344.231 354.527 349.557 362.025 354.817 369.584C360.246 377.379 365.798 385.079 371.378 392.765C374.153 396.59 376.921 400.42 379.688 404.25C380.229 405.001 380.771 405.751 381.33 406.523C385.84 412.77 390.323 419.036 394.794 425.311C396.035 427.049 397.279 428.785 398.523 430.52C399.37 431.701 400.216 432.882 401.062 434.063C401.472 434.633 401.882 435.203 402.303 435.791C404.427 438.759 406.516 441.745 408.559 444.77C408.969 445.375 409.38 445.98 409.802 446.604C410.937 448.282 412.062 449.965 413.188 451.649C413.786 452.425 414.384 453.201 415 454C415.66 454 416.32 454 417 454C417.206 454.651 417.412 455.302 417.625 455.973C419.547 460.205 422.241 463.713 425 467.438C426.186 469.06 427.373 470.683 428.559 472.305C429.438 473.503 429.438 473.503 430.335 474.726C432.601 477.822 434.836 480.939 437.062 484.063C437.457 484.615 437.851 485.167 438.258 485.736C440.507 488.89 442.742 492.053 444.969 495.223C449.406 501.54 453.838 507.846 458.5 514C463.658 520.812 468.55 527.805 473.456 534.799C481.665 546.503 489.958 558.141 498.346 569.717C501.129 573.559 503.909 577.405 506.688 581.25C507.231 582.003 507.775 582.756 508.336 583.531C511.97 588.565 515.584 593.611 519.188 598.667C522.65 603.519 526.135 608.356 529.625 613.188C530.183 613.96 530.741 614.733 531.315 615.529C534.282 619.632 537.26 623.727 540.25 627.813C543.341 632.054 546.329 636.36 549.303 640.685C554.19 647.762 559.261 654.708 564.311 661.67C567.046 665.443 569.772 669.222 572.5 673C573.583 674.5 574.667 676 575.75 677.5C577.917 680.5 580.083 683.5 582.25 686.5C582.787 687.244 583.323 687.987 583.876 688.752C584.955 690.246 586.033 691.739 587.112 693.233C589.893 697.084 592.675 700.934 595.461 704.782C600.395 711.6 605.328 718.416 610.137 725.325C616.883 735.013 623.676 744.648 630.801 754.063C635.982 760.984 640.941 768.07 645.914 775.141C653.209 785.511 660.652 795.759 668.184 805.957C672.342 811.624 676.301 817.387 680.141 823.274C681.977 825.967 683.957 828.462 686 831C687.597 833.2 689.18 835.406 690.75 837.625C691.64 838.878 692.531 840.131 693.422 841.383C693.86 841.998 694.297 842.614 694.748 843.247C696.483 845.677 698.24 848.089 700 850.5C705.912 858.61 711.756 866.77 717.5 875C724.204 884.597 731.043 894.086 738 903.5C746.339 914.786 754.455 926.22 762.542 937.687C772.679 952.057 782.979 966.31 793.297 980.551C799.195 988.697 805.046 996.873 810.832 1005.1C814.138 1009.79 817.496 1014.45 820.887 1019.08C823.563 1022.78 826.187 1026.51 828.812 1030.25C833.138 1036.4 837.532 1042.49 841.993 1048.54C846.316 1054.41 850.554 1060.34 854.779 1066.28C861.206 1075.32 867.674 1084.33 874.172 1093.31C877.983 1098.58 881.772 1103.87 885.547 1109.17C887.969 1112.57 890.413 1115.95 892.875 1119.31C896.239 1123.92 899.53 1128.58 902.812 1133.25C910.49 1144.18 910.49 1144.18 918.497 1154.87C920 1157 920 1157 921.456 1159.73C924.129 1164.3 926.147 1167.45 931.363 1169C935.632 1169.36 939.778 1169.36 944.055 1169.25C945.681 1169.25 947.308 1169.25 948.935 1169.25C953.335 1169.26 957.731 1169.19 962.129 1169.12C966.732 1169.05 971.335 1169.04 975.939 1169.03C984.648 1168.99 993.356 1168.9 1002.06 1168.79C1011.98 1168.67 1021.9 1168.61 1031.82 1168.55C1052.21 1168.44 1072.61 1168.25 1093 1168C1091.57 1164.26 1089.99 1161.39 1087.56 1158.19C1084.14 1153.59 1080.85 1148.92 1077.62 1144.19C1071 1134.5 1064.16 1124.98 1057.28 1115.48C1049.95 1105.34 1042.72 1095.13 1035.52 1084.9C1029.83 1076.81 1024.11 1068.75 1018.31 1060.75C1013.9 1054.66 1009.56 1048.53 1005.3 1042.33C998.295 1032.16 991.123 1022.11 983.796 1012.17C980.731 1008.01 977.736 1003.81 974.789 999.563C972.654 996.504 970.485 993.47 968.312 990.438C964.58 985.226 960.877 979.993 957.188 974.75C952.94 968.718 948.643 962.724 944.312 956.75C939.9 950.662 935.565 944.532 931.305 938.336C926.604 931.511 921.794 924.761 917 918C916.56 917.38 916.12 916.759 915.667 916.12C911.041 909.602 906.366 903.123 901.625 896.688C894.377 886.847 887.373 876.833 880.375 866.813C875.564 859.928 870.659 853.11 865.769 846.281C858.284 835.826 850.866 825.324 843.459 814.814C838.324 807.53 833.187 800.248 828 793C821.233 783.546 814.544 774.035 807.852 764.528C802.989 757.624 798.103 750.743 793.117 743.926C789.893 739.471 786.733 734.972 783.567 730.476C779.144 724.198 774.688 717.946 770.218 711.702C767.724 708.218 765.235 704.73 762.745 701.243C760.688 698.363 758.63 695.484 756.57 692.606C749.004 682.032 741.507 671.409 734.027 660.774C727.775 651.89 721.45 643.063 715.082 634.262C707.686 624.04 700.407 613.74 693.181 603.397C688.562 596.791 683.898 590.22 679.199 583.671C677.067 580.7 674.939 577.725 672.812 574.75C672.392 574.162 671.971 573.574 671.538 572.968C668.607 568.863 665.71 564.735 662.824 560.598C660.253 556.936 657.646 553.3 655.041 549.662C652.202 545.694 649.385 541.711 646.579 537.72C642.304 531.639 637.988 525.598 633.562 519.625C629.465 514.091 625.549 508.452 621.688 502.75C616.087 494.488 610.23 486.443 604.281 478.43C597.343 469.085 590.675 459.563 584.103 449.958C580.736 445.047 577.305 440.185 573.831 435.349C571.605 432.249 569.391 429.141 567.199 426.016C561.201 417.465 555.09 409.011 548.876 400.615C544.825 395.138 540.863 389.612 537 384C528.555 371.887 520.034 359.825 511.438 347.818C508.539 343.764 505.676 339.686 502.824 335.598C500.255 331.939 497.65 328.306 495.047 324.671C491.635 319.9 488.252 315.109 484.875 310.313C481.615 305.685 478.342 301.07 475 296.5C468.403 287.473 461.993 278.309 455.609 269.129C449.167 259.873 442.622 250.715 435.903 241.658C431.913 236.269 428.048 230.817 424.258 225.286C416.952 214.655 409.425 204.18 401.859 193.734C396.17 185.872 390.582 177.939 385 170C378.985 161.451 372.965 152.91 366.793 144.473C364.406 141.182 362.088 137.845 359.766 134.508C357.958 131.94 356.109 129.407 354.25 126.875C350.414 121.627 346.74 116.277 343.072 110.911C339.825 106.171 336.527 101.482 333.045 96.9107C331 94.0004 331 94.0005 329.247 90.6898C325.288 83.6147 325.288 83.6146 318.421 79.8221C313.984 79.2337 309.56 79.3898 305.097 79.5246C303.392 79.5283 301.686 79.5262 299.98 79.5189C295.37 79.5152 290.763 79.5913 286.154 79.6823C281.329 79.7638 276.505 79.7712 271.68 79.7867C262.552 79.827 253.427 79.9336 244.301 80.0642C233.907 80.2097 223.513 80.281 213.118 80.3462C191.744 80.482 170.372 80.7105 149 81.0005Z" fill="white"/>
</svg>
